<mxfile host="app.diagrams.net" modified="2023-12-03T14:52:04.337Z" agent="Mozilla/5.0 (Windows NT 10.0; Win64; x64) AppleWebKit/537.36 (KHTML, like Gecko) Chrome/118.0.0.0 Safari/537.36 OPR/104.0.0.0" etag="ZHHabV5xQbwLvqjC8e0W" version="22.1.5" type="device">
  <diagram name="Page-1" id="DLiEjsSnvPwBr1glW4-z">
    <mxGraphModel dx="1967" dy="2420" grid="1" gridSize="10" guides="1" tooltips="1" connect="1" arrows="1" fold="1" page="1" pageScale="1" pageWidth="850" pageHeight="1100" math="0" shadow="0">
      <root>
        <mxCell id="0" />
        <mxCell id="1" parent="0" />
        <mxCell id="3WwaebRsQVo44cyUnCi0-45" style="orthogonalLoop=1;jettySize=auto;html=1;exitX=1;exitY=0.5;exitDx=0;exitDy=0;entryX=0;entryY=0.5;entryDx=0;entryDy=0;" edge="1" parent="1" source="3WwaebRsQVo44cyUnCi0-2" target="3WwaebRsQVo44cyUnCi0-14">
          <mxGeometry relative="1" as="geometry" />
        </mxCell>
        <mxCell id="3WwaebRsQVo44cyUnCi0-2" value="" style="ellipse;whiteSpace=wrap;html=1;aspect=fixed;rounded=0;" vertex="1" parent="1">
          <mxGeometry x="225" y="110" width="80" height="80" as="geometry" />
        </mxCell>
        <mxCell id="3WwaebRsQVo44cyUnCi0-46" style="orthogonalLoop=1;jettySize=auto;html=1;exitX=1;exitY=0.5;exitDx=0;exitDy=0;entryX=0;entryY=0.5;entryDx=0;entryDy=0;" edge="1" parent="1" source="3WwaebRsQVo44cyUnCi0-3" target="3WwaebRsQVo44cyUnCi0-14">
          <mxGeometry relative="1" as="geometry" />
        </mxCell>
        <mxCell id="3WwaebRsQVo44cyUnCi0-3" value="" style="ellipse;whiteSpace=wrap;html=1;aspect=fixed;rounded=0;" vertex="1" parent="1">
          <mxGeometry x="225" y="230" width="80" height="80" as="geometry" />
        </mxCell>
        <mxCell id="3WwaebRsQVo44cyUnCi0-47" style="orthogonalLoop=1;jettySize=auto;html=1;exitX=1;exitY=0.5;exitDx=0;exitDy=0;entryX=0;entryY=0.5;entryDx=0;entryDy=0;dashed=1;" edge="1" parent="1" source="3WwaebRsQVo44cyUnCi0-4" target="3WwaebRsQVo44cyUnCi0-14">
          <mxGeometry relative="1" as="geometry" />
        </mxCell>
        <mxCell id="3WwaebRsQVo44cyUnCi0-4" value="" style="ellipse;whiteSpace=wrap;html=1;aspect=fixed;rounded=0;" vertex="1" parent="1">
          <mxGeometry x="225" y="350" width="80" height="80" as="geometry" />
        </mxCell>
        <mxCell id="3WwaebRsQVo44cyUnCi0-48" style="orthogonalLoop=1;jettySize=auto;html=1;exitX=1;exitY=0.5;exitDx=0;exitDy=0;entryX=0;entryY=0.5;entryDx=0;entryDy=0;" edge="1" parent="1" source="3WwaebRsQVo44cyUnCi0-5" target="3WwaebRsQVo44cyUnCi0-14">
          <mxGeometry relative="1" as="geometry" />
        </mxCell>
        <mxCell id="3WwaebRsQVo44cyUnCi0-5" value="" style="ellipse;whiteSpace=wrap;html=1;aspect=fixed;rounded=0;" vertex="1" parent="1">
          <mxGeometry x="225" y="470" width="80" height="80" as="geometry" />
        </mxCell>
        <mxCell id="3WwaebRsQVo44cyUnCi0-49" style="orthogonalLoop=1;jettySize=auto;html=1;exitX=1;exitY=0.5;exitDx=0;exitDy=0;entryX=0;entryY=0.5;entryDx=0;entryDy=0;dashed=1;" edge="1" parent="1" source="3WwaebRsQVo44cyUnCi0-6" target="3WwaebRsQVo44cyUnCi0-14">
          <mxGeometry relative="1" as="geometry" />
        </mxCell>
        <mxCell id="3WwaebRsQVo44cyUnCi0-6" value="" style="ellipse;whiteSpace=wrap;html=1;aspect=fixed;rounded=0;" vertex="1" parent="1">
          <mxGeometry x="225" y="590" width="80" height="80" as="geometry" />
        </mxCell>
        <mxCell id="3WwaebRsQVo44cyUnCi0-53" style="orthogonalLoop=1;jettySize=auto;html=1;exitX=1;exitY=0.5;exitDx=0;exitDy=0;entryX=0;entryY=0.5;entryDx=0;entryDy=0;" edge="1" parent="1" source="3WwaebRsQVo44cyUnCi0-10" target="3WwaebRsQVo44cyUnCi0-14">
          <mxGeometry relative="1" as="geometry" />
        </mxCell>
        <mxCell id="3WwaebRsQVo44cyUnCi0-10" value="" style="ellipse;whiteSpace=wrap;html=1;aspect=fixed;rounded=0;" vertex="1" parent="1">
          <mxGeometry x="225" y="1070" width="80" height="80" as="geometry" />
        </mxCell>
        <mxCell id="3WwaebRsQVo44cyUnCi0-14" value="" style="ellipse;whiteSpace=wrap;html=1;aspect=fixed;rounded=0;" vertex="1" parent="1">
          <mxGeometry x="545" y="590" width="80" height="80" as="geometry" />
        </mxCell>
        <mxCell id="3WwaebRsQVo44cyUnCi0-35" value="" style="endArrow=none;dashed=1;html=1;dashPattern=1 3;strokeWidth=9;rounded=0;" edge="1" parent="1">
          <mxGeometry width="50" height="50" relative="1" as="geometry">
            <mxPoint x="265" y="1030" as="sourcePoint" />
            <mxPoint x="265" y="710" as="targetPoint" />
          </mxGeometry>
        </mxCell>
        <mxCell id="3WwaebRsQVo44cyUnCi0-58" value="Input Layer&lt;br style=&quot;border-color: var(--border-color);&quot;&gt;&lt;br style=&quot;border-color: var(--border-color);&quot;&gt;i" style="text;html=1;strokeColor=none;fillColor=none;align=center;verticalAlign=middle;whiteSpace=wrap;rounded=0;fontSize=24;fontStyle=1" vertex="1" parent="1">
          <mxGeometry x="225" y="-50" width="80" height="120" as="geometry" />
        </mxCell>
        <mxCell id="3WwaebRsQVo44cyUnCi0-59" value="Output Layer&lt;br&gt;&lt;br&gt;o" style="text;html=1;strokeColor=none;fillColor=none;align=center;verticalAlign=middle;whiteSpace=wrap;rounded=0;fontSize=24;fontStyle=1" vertex="1" parent="1">
          <mxGeometry x="545" y="-50" width="80" height="120" as="geometry" />
        </mxCell>
        <mxCell id="3WwaebRsQVo44cyUnCi0-61" value="Sigmoid" style="text;html=1;strokeColor=none;fillColor=none;align=center;verticalAlign=middle;whiteSpace=wrap;rounded=0;fontSize=24;fontStyle=1" vertex="1" parent="1">
          <mxGeometry x="545" y="1210" width="80" height="120" as="geometry" />
        </mxCell>
        <mxCell id="3WwaebRsQVo44cyUnCi0-65" value="" style="shape=curlyBracket;whiteSpace=wrap;html=1;rounded=1;labelPosition=left;verticalLabelPosition=middle;align=right;verticalAlign=middle;rotation=-90;" vertex="1" parent="1">
          <mxGeometry x="575" y="1160" width="20" height="120" as="geometry" />
        </mxCell>
        <mxCell id="3WwaebRsQVo44cyUnCi0-72" value="i&lt;sub style=&quot;border-color: var(--border-color);&quot;&gt;3&lt;/sub&gt;" style="text;html=1;strokeColor=none;fillColor=none;align=center;verticalAlign=middle;whiteSpace=wrap;rounded=0;fontSize=24;fontStyle=1" vertex="1" parent="1">
          <mxGeometry x="225" y="350" width="80" height="80" as="geometry" />
        </mxCell>
        <mxCell id="3WwaebRsQVo44cyUnCi0-73" value="i&lt;sub style=&quot;border-color: var(--border-color);&quot;&gt;4&lt;/sub&gt;" style="text;html=1;strokeColor=none;fillColor=none;align=center;verticalAlign=middle;whiteSpace=wrap;rounded=0;fontSize=24;fontStyle=1" vertex="1" parent="1">
          <mxGeometry x="225" y="470" width="80" height="80" as="geometry" />
        </mxCell>
        <mxCell id="3WwaebRsQVo44cyUnCi0-74" value="i&lt;sub style=&quot;border-color: var(--border-color);&quot;&gt;5&lt;/sub&gt;" style="text;html=1;strokeColor=none;fillColor=none;align=center;verticalAlign=middle;whiteSpace=wrap;rounded=0;fontSize=24;fontStyle=1" vertex="1" parent="1">
          <mxGeometry x="225" y="590" width="80" height="80" as="geometry" />
        </mxCell>
        <mxCell id="3WwaebRsQVo44cyUnCi0-78" value="i&lt;sub&gt;n&lt;/sub&gt;" style="text;html=1;strokeColor=none;fillColor=none;align=center;verticalAlign=middle;whiteSpace=wrap;rounded=0;fontSize=24;fontStyle=1" vertex="1" parent="1">
          <mxGeometry x="225" y="1070" width="80" height="80" as="geometry" />
        </mxCell>
        <mxCell id="3WwaebRsQVo44cyUnCi0-80" value="o&lt;sub&gt;1&lt;/sub&gt;" style="text;html=1;strokeColor=none;fillColor=none;align=center;verticalAlign=middle;whiteSpace=wrap;rounded=0;fontSize=24;fontStyle=1" vertex="1" parent="1">
          <mxGeometry x="545" y="590" width="80" height="80" as="geometry" />
        </mxCell>
        <mxCell id="3WwaebRsQVo44cyUnCi0-83" value="i&lt;sub&gt;1&lt;/sub&gt;" style="text;html=1;strokeColor=none;fillColor=none;align=center;verticalAlign=middle;whiteSpace=wrap;rounded=0;fontSize=24;fontStyle=1" vertex="1" parent="1">
          <mxGeometry x="225" y="110" width="80" height="80" as="geometry" />
        </mxCell>
        <mxCell id="3WwaebRsQVo44cyUnCi0-84" value="i&lt;span style=&quot;font-size: 20px;&quot;&gt;&lt;sub&gt;2&lt;/sub&gt;&lt;/span&gt;" style="text;html=1;strokeColor=none;fillColor=none;align=center;verticalAlign=middle;whiteSpace=wrap;rounded=0;fontSize=24;fontStyle=1" vertex="1" parent="1">
          <mxGeometry x="225" y="230" width="80" height="80" as="geometry" />
        </mxCell>
      </root>
    </mxGraphModel>
  </diagram>
</mxfile>
